<svg width="164" height="282" viewBox="0 0 164 282" fill="none" xmlns="http://www.w3.org/2000/svg">
<path d="M56.1152 1.92909C56.0855 2.66916 56.5765 2.62884 57.1027 2.64111C58.055 2.66216 59.051 2.58498 59.9472 2.83928C62.1428 3.46008 64.3736 3.83013 66.6077 4.25803C70.3923 4.98231 73.8769 6.56943 76.8968 8.99833C78.4962 10.2838 79.9713 11.7324 81.4461 13.1669C82.2825 13.9806 82.563 15.0416 82.6174 16.2254C82.7192 18.442 83.026 20.6518 83.0929 22.8703C83.1331 24.24 83.1244 25.6972 82.6999 26.9686C82.3177 28.1156 82.9578 28.247 83.5873 28.582C85.0412 29.3555 85.2727 30.0692 84.587 31.7809C83.6363 34.1519 82.5948 36.4912 81.7652 38.9044C81.269 40.3461 80.043 40.3897 78.9487 40.9966C78.7014 41.1335 77.4773 40.8932 77.1353 40.7195C75.5642 39.9233 74.7082 39.4184 72.9529 39.462C72.5004 39.4725 72.5214 39.8638 71.9006 39.8128C71.2358 42.1156 69.684 44.49 69.3856 46.9066C69.1578 48.7602 69.8347 50.7524 70.666 52.5834C71.7391 54.9473 72.2496 57.4045 73.3142 59.7738C74.3767 62.1377 75.4747 64.4965 76.7355 66.7587C78.7138 70.3099 80.8304 73.784 82.9192 77.2722C83.2558 77.8352 83.7486 78.307 84.1713 78.819C85.3778 80.2833 85.96 82.072 86.4021 83.8347C86.8316 85.5464 86.9245 87.3683 86.9563 89.1465C87.0036 91.7054 86.8282 94.2657 86.8228 96.8263C86.8211 97.8837 87.0526 98.9411 87.0999 100.002C87.1212 100.491 86.9894 101 86.8616 101.482C86.4406 103.062 86.2372 104.658 86.6633 106.256C86.7545 106.598 87.2141 106.842 87.5822 107.207C87.4649 107.424 88.324 107.78 88.1205 108.157C89.9322 110.689 91.4388 113.288 93.3029 115.884C93.4485 116.087 93.608 116.357 93.8186 116.426C94.8655 116.766 94.7638 117.555 95.1883 118.474C95.6949 119.574 96.1105 120.717 96.5559 121.845C97.2207 123.53 97.2839 125.247 96.5455 126.899C96.0159 128.086 96.5316 128.903 97.3558 129.977C98.7323 131.767 99.448 133.798 100.612 135.746C101.84 137.798 102.889 139.975 104.281 141.907C105.405 143.468 106.97 145.02 108.641 146.134C109.307 146.577 109.804 147.314 110.286 147.982C110.749 148.622 110.119 149.282 109.556 149.665C109 150.046 108.401 150.811 107.585 149.894C107.494 150.458 107.408 150.921 107.345 151.388C107.163 152.756 106.308 153.617 104.974 153.811C103.539 154.02 102.115 154.322 100.675 154.451C100.013 154.511 99.2551 154.399 98.6586 154.117C97.6066 153.618 96.3281 153.369 95.7651 152.152C95.1389 150.797 94.4867 149.448 93.9605 148.054C93.4327 146.654 93.0487 145.199 92.5908 143.771C92.5452 143.627 92.4506 143.468 92.3313 143.385C91.2212 142.621 90.1025 141.87 88.9028 141.06C88.1874 141.697 87.47 142.518 86.5862 143.07C85.8461 143.533 84.9307 143.794 84.0574 143.956C81.8405 144.366 79.6486 144.283 77.5212 143.384C76.9863 143.158 76.3428 143.108 75.7501 143.114C72.3757 143.145 69 143.191 65.6276 143.291C63.7247 143.347 61.8201 143.454 59.9262 143.642C57.6447 143.87 55.3805 144.259 53.0991 144.485C51.0559 144.689 48.9829 144.994 46.9573 144.829C45.1212 144.68 43.3869 143.894 41.8016 142.793C40.56 141.928 40.0548 140.58 39.164 139.496C38.5729 138.775 39.071 137.931 39.3427 137.216C39.9216 135.696 39.9636 134.258 39.3042 132.73C38.7273 131.394 38.2714 129.987 37.9416 128.568C37.8084 127.991 38.0467 127.255 38.3012 126.673C39.113 124.812 40.0109 122.988 40.9195 121.055C39.4059 121.055 37.968 120.996 36.5405 121.075C35.4303 121.136 34.3273 121.345 33.2293 121.541C32.9522 121.59 32.519 121.809 32.4841 122.006C32.1492 123.937 30.8039 124.775 29.0854 124.977C27.563 125.156 25.9726 125.235 24.4766 124.98C23.2789 124.777 22.1809 124.025 21.4936 122.86C20.8062 121.696 20.087 120.547 19.326 119.432C18.379 118.044 19.1225 114.162 20.9481 113.423C22.0073 112.996 22.5476 112.127 22.502 110.882C22.4546 109.572 22.4266 108.227 22.6669 106.95C22.8423 106.021 23.4665 105.176 23.9295 104.211C23.5155 104.09 23.1245 104.029 22.7791 103.869C20.471 102.803 19.8485 101.486 19.9502 98.5957C20.0853 94.7848 20.9937 91.1248 21.9477 87.4754C22.2492 86.323 22.9369 85.2744 23.4155 84.1642C23.8609 83.1297 24.7588 82.6262 25.706 82.2457C26.532 81.9142 27.0247 81.3566 27.3403 80.5692C27.7333 79.5854 28.1402 78.6067 28.4944 77.7423C28.0348 77.6196 27.5806 77.4966 27.1247 77.3739C27.1213 77.2563 27.1193 77.139 27.1159 77.0231C27.7421 76.718 28.3697 76.4165 28.9942 76.1077C29.5694 75.8237 29.7992 75.4642 29.2889 74.9012C28.9169 74.4909 29.0432 74.0296 29.0486 73.5071C29.0696 71.5832 28.8925 69.6559 28.7837 67.7303C28.7242 66.6641 28.6573 65.5976 28.5802 64.5314C28.4697 62.9778 28.3031 61.4274 28.2558 59.8718C28.2382 59.302 27.9648 58.4865 28.3224 58.2182C28.6749 57.955 29.5167 56.6887 29.9989 56.9344C30.348 57.1132 30.8725 59.1405 31.0091 59.6018C31.2425 60.3926 31.4301 61.2047 31.5545 62.0201C31.8441 63.916 32.0475 65.8257 32.3561 67.7198C32.6576 69.5735 33.0469 71.4129 33.4557 73.5612C33.8904 73.079 34.3026 72.7563 34.5395 72.3338C35.1847 71.1727 35.723 69.954 36.3668 68.7929C36.8227 67.9706 37.3191 67.1568 38.3958 66.9639C38.601 66.9271 38.8412 66.5834 38.9027 66.3414C39.4482 64.1982 40.1933 62.157 41.5735 60.3858C41.8716 60.0033 41.5262 59.4544 40.972 59.2844C40.0777 59.009 39.1693 58.76 38.3117 58.397C37.9889 58.2602 37.6189 57.8674 37.5611 57.5393C37.4067 56.6607 37.454 55.7472 37.3384 54.8598C37.2525 54.2038 38.0099 52.7466 38.4273 52.5431C39.7165 51.9153 40.6793 52.3397 42.0507 51.9487C43.15 51.6347 44.348 51.6679 45.5859 51.5398C45.6386 51.3732 45.7211 51.0454 45.8455 50.7314C46.2385 49.7406 45.7001 48.8464 44.6339 48.9444C42.4065 49.1515 40.4407 48.5463 38.5905 47.3557C37.7155 46.7927 37.3259 45.9928 37.184 45.0266C37.0981 44.4443 37.8626 43.5272 38.4536 43.4957C39.853 43.4221 40.7178 42.8888 41.1791 41.393C41.8628 39.1781 43.0239 37.1103 43.7147 34.8971C44.5092 32.349 45.0073 29.6975 44.8688 27.002C44.7897 25.4884 44.3848 23.9943 44.2831 22.481C44.1094 19.9204 43.4623 17.3021 44.569 14.8189C45.0861 13.6562 45.8404 12.5777 46.6156 11.557C47.8853 9.88395 49.1776 8.21265 50.6122 6.68518C52.1819 5.01388 53.9233 3.50743 55.5911 1.92734C55.7664 1.92734 55.9418 1.92734 56.1172 1.92734L56.1152 1.92909ZM27.7087 118.286C27.1703 117.695 26.8074 117.199 26.3444 116.825C26.0987 116.627 25.5604 116.755 25.3657 116.543C24.8747 116.005 23.9521 116.107 23.6348 115.321C23.6121 115.267 23.0211 115.317 22.8386 115.48C22.579 115.714 22.4283 116.084 22.2722 116.415C21.404 118.248 22.2739 119.747 23.1437 121.296C24.1363 123.065 25.8145 123.498 27.5755 123.604C29.2186 123.702 30.2814 122.399 30.3271 120.57C30.369 118.885 29.0361 117.859 27.7104 118.288L27.7087 118.286Z" fill="white"/>
<path d="M26.4775 281.646C25.3394 281.47 24.2029 281.175 23.0613 281.144C20.6396 281.085 18.3858 280.447 16.271 279.345C14.7908 278.572 13.4528 278.923 12.1305 279.62C10.8362 280.303 9.59116 280.405 8.20023 279.832C6.21513 279.016 4.16344 278.362 2.1483 277.617C1.5309 277.39 1.16255 277.008 1.56603 276.285C2.99352 273.741 3.58117 270.888 4.28953 268.115C4.95935 265.498 5.58893 262.885 6.67272 260.409C7.09547 259.445 7.65309 258.54 8.16877 257.617C8.56857 256.902 9.30357 256.911 9.95412 256.977C10.1644 256.998 10.3205 257.556 10.5888 258.017C10.9659 257.952 11.4904 257.849 12.02 257.777C12.3268 257.735 12.6583 257.675 12.9493 257.744C14.4295 258.094 15.9131 258.44 17.3686 258.878C18.1195 259.104 18.8718 259.441 19.5048 259.894C19.7819 260.092 19.7677 260.7 19.8853 261.123C19.8082 261.153 19.7329 261.185 19.6555 261.214C19.9468 261.375 20.2905 261.483 20.5166 261.709C20.8464 262.037 21.1218 262.338 20.9218 262.975C20.5851 264.045 20.4922 265.19 20.2939 266.312C21.0586 266.267 21.7041 266.228 22.4722 266.182C22.0758 266.972 22.8808 265.719 23.4979 265.867C24.1663 266.028 24.3695 267.782 24.8993 268.261C26.3478 269.567 27.6174 271.095 29.1642 272.262C31.2706 273.851 33.4784 275.353 36.0758 276.087C37.2032 276.407 38.3573 276.625 39.483 276.948C40.0477 277.11 40.5775 277.399 41.1176 277.642C41.1825 277.671 41.2159 277.778 41.2596 277.852C41.6647 278.546 41.0649 280.504 40.3004 280.753C39.2184 281.107 38.1011 281.357 36.9998 281.649H35.9477C35.895 281.598 35.846 281.504 35.7899 281.498C34.6761 281.425 33.5625 281.334 32.4473 281.314C32.1543 281.309 31.858 281.53 31.565 281.649H26.4793L26.4775 281.646Z" fill="white"/>
<path d="M161.864 250.255C161.721 250.72 161.65 251.225 161.423 251.642C160.246 253.807 158.529 255.522 156.663 257.072C154.499 258.871 152.252 260.571 150.044 262.317C148.108 263.848 146.156 265.362 144.262 266.942C143.826 267.307 143.584 267.908 143.268 268.413C142.498 269.644 141.227 270.209 139.992 270.758C138.231 271.539 136.43 272.245 134.608 272.868C133.977 273.083 133.217 273.066 132.54 272.976C131.869 272.882 131.458 272.358 131.143 271.726C129.698 268.841 128.191 265.988 126.746 263.103C126.071 261.754 125.485 260.358 124.794 258.842C125.161 258.875 125.457 258.903 125.878 258.943C126.166 258.229 126.499 257.403 126.765 256.741H128.989C129.207 255.834 129.491 255.013 130.736 255.12C131.111 255.152 131.52 254.778 132.074 254.513C132.377 253.877 132.46 252.77 133.747 252.654C133.879 252.642 134.026 252.44 134.108 252.293C134.32 251.918 134.389 251.237 135.01 251.948C135.171 251.804 135.367 251.683 135.483 251.508C135.571 251.378 135.51 251.151 135.592 251.013C136.309 249.818 136.402 249.836 137.437 250.804C138.409 251.711 139.387 252.626 140.46 253.403C141.563 254.201 142.844 254.145 144.099 253.721C145.55 253.231 146.983 252.688 148.441 252.233C149.439 251.923 150.511 251.832 151.479 251.46C153.594 250.648 155.642 249.662 157.763 248.866C158.648 248.533 159.655 248.349 160.589 248.396C161.031 248.419 161.438 249.145 161.861 249.554V250.255H161.864Z" fill="white"/>
<path d="M75.2449 152.575C75.6571 152.822 75.9272 152.991 76.2043 153.148C76.3445 153.229 76.5145 153.266 76.6355 153.366C76.8426 153.534 78.1069 154.351 78.3069 154.406C77.972 155.063 77.6493 155.726 77.2968 156.374C77.139 156.663 77.1478 156.733 77.43 157.021C77.6912 157.287 77.6912 158.077 77.4932 158.481C76.5023 160.493 75.3993 162.449 74.3503 164.434C73.9542 165.182 73.6018 165.954 73.2263 166.715C73.0212 167.131 72.7758 167.531 72.6197 167.964C72.4636 168.395 72.5231 168.923 71.8093 168.941C71.6586 168.944 71.4112 169.426 71.399 169.696C71.3744 170.233 71.492 170.777 71.5271 171.319C71.541 171.545 71.5744 171.925 71.4656 171.98C70.8448 172.303 71.0571 172.822 71.0622 173.306C71.0692 173.911 71.1588 174.525 70.3396 174.789C70.0909 174.87 69.9803 175.356 69.7925 175.647C69.6471 175.871 69.4822 176.084 69.2261 176.44C67.9564 174.372 66.7726 172.445 65.5888 170.516C65.6696 170.452 65.7503 170.391 65.8311 170.328C66.145 170.472 66.457 170.617 66.7604 170.758C66.4063 169.074 66.9639 168.146 68.0791 168.497C68.2389 167.352 68.4336 166.203 68.5475 165.046C68.635 164.162 68.9121 163.418 69.7384 163.006C70.6904 162.533 70.666 161.526 71.0253 160.735C71.7147 159.216 72.3706 157.682 73.0036 156.14C73.2702 155.493 73.321 154.729 73.6893 154.157C74.0928 153.531 74.7467 153.068 75.2485 152.575H75.2449Z" fill="white"/>
<path d="M99.2041 234.598C97.4839 233.8 96.414 232.592 95.7036 231.094C95.1987 230.033 94.5867 228.923 94.4833 227.792C94.3042 225.822 93.168 224.184 92.9031 222.282C92.8697 222.043 92.9714 221.784 93.0102 221.535C93.259 221.654 93.6327 221.707 93.7361 221.903C94.7253 223.795 95.6688 221.691 96.6279 223.599C97.1399 224.618 97.6698 229.651 98.173 230.673C98.2659 230.863 98.2869 231.091 98.3203 231.305C98.373 231.648 98.3659 232.008 98.4623 232.339C98.6728 233.067 98.9323 233.781 99.2061 234.6L99.2041 234.598Z" fill="white"/>
<path d="M32.6332 191.949C32.3419 193.481 32.0563 195.013 31.7562 196.542C31.5653 197.519 31.4423 198.491 30.1656 198.78C29.6938 198.887 29.324 199.45 28.9084 199.804C28.8222 199.776 28.7347 199.75 28.6488 199.722C28.6924 199.178 28.6049 198.58 28.803 198.102C29.5396 196.33 30.3305 194.576 31.1986 192.867C31.4284 192.414 32.0087 192.139 32.4297 191.783C32.498 191.839 32.5666 191.895 32.6332 191.951V191.949Z" fill="white"/>
<path d="M30.4078 261.228C29.6958 260.718 28.468 261.309 28.0946 260.087C28.8925 258.882 30.0956 258.861 31.4267 260.127C31.0881 260.493 30.7495 260.86 30.4078 261.228Z" fill="white"/>
<path d="M59.0966 0C59.8667 0.117502 60.6346 0.256028 61.4081 0.347236C64.5999 0.719011 67.6671 1.56607 70.6167 2.81646C71.6376 3.24963 72.5565 3.9213 73.5771 4.35272C74.3996 4.69995 75.3676 4.72276 76.1586 5.11559C77.5283 5.79955 78.8311 6.62728 80.1238 7.45328C81.0375 8.03728 81.369 8.94044 81.1866 10.0084C81.1146 10.4311 81.2846 10.6538 81.6266 10.8906C84.2433 12.7004 85.5549 15.338 86.274 18.3368C86.3599 18.6964 86.3811 19.0715 86.4565 19.4328C86.937 21.7602 85.3463 22.8964 83.8205 24.0927C83.5715 24.289 83.3734 24.6256 83.2839 24.9362C83.119 25.5077 83.0419 26.1058 82.949 26.6952C82.8648 27.2264 82.9841 27.5982 83.5802 27.8263C84.4379 28.1524 85.3288 28.5207 85.6742 29.4923C85.7742 29.7711 85.8549 30.248 85.7076 30.3936C84.7394 31.3494 84.7607 32.6683 84.3328 33.8204C83.733 35.4374 83.0331 37.0157 82.4211 38.6273C81.802 40.2565 80.3711 40.8071 78.9085 41.1578C78.2174 41.3244 77.3949 41.0088 76.6443 40.851C75.2029 40.5475 73.7701 40.2004 72.3162 39.8655C72.0618 40.2951 71.7867 40.7597 71.471 41.2947C72.1986 41.5684 72.0232 41.9402 71.7532 42.5488C71.1726 43.8604 70.6799 45.2334 70.366 46.6312C70.224 47.2662 70.566 48.0201 70.7292 48.7112C71.1061 50.3107 71.4937 51.9065 71.9147 53.4954C71.9918 53.7847 72.2689 54.0145 72.4109 54.295C74.4645 58.3355 76.476 62.3989 78.5753 66.415C79.773 68.707 81.148 70.9063 82.386 73.179C84.3501 76.7828 86.302 80.3938 88.1627 84.0503C88.4047 84.5275 88.0996 85.2936 88.0171 85.9215C87.8576 87.1405 87.5947 88.3503 87.521 89.5747C87.3963 91.6666 87.3946 93.7659 87.321 95.8615C87.3034 96.3755 87.1492 96.8875 87.1719 97.3961C87.1949 97.9117 87.428 98.4167 87.4419 98.9306C87.4632 99.6653 87.3719 100.405 87.3263 101.142C87.2385 102.583 87.1492 104.025 87.0702 105.312C87.4946 105.735 87.9366 106.045 88.2067 106.468C90.4094 109.897 92.5804 113.348 94.7848 116.829C94.9426 116.94 95.2988 117.066 95.4512 117.316C95.9949 118.211 96.4262 119.175 96.9875 120.058C97.3278 120.591 97.8925 120.98 98.2449 121.508C98.8692 122.443 98.6938 123.411 98.2713 124.409C97.98 125.096 97.8644 125.859 97.6749 126.588C97.661 126.643 97.6961 126.725 97.6681 126.76C96.9016 127.692 97.4802 128.374 97.9817 129.191C98.7026 130.37 99.2375 131.662 99.8478 132.907C100.212 133.652 100.511 134.34 101.489 134.626C102.263 134.852 102.399 135.799 102.396 136.576C102.393 137.323 102.554 137.835 103.166 138.412C104.453 139.625 105.551 141.041 106.698 142.398C108.148 144.113 109.542 145.877 111.023 147.566C111.531 148.147 111.605 148.622 111.145 149.202C110.477 150.046 109.939 151.069 108.613 151.011C108.497 151.005 108.339 151.188 108.26 151.319C108.132 151.537 108.053 151.784 107.953 152.019C106.949 154.373 104.898 155.544 102.614 155.812C100.498 156.06 98.2537 155.609 96.3528 154.466C95.6949 154.071 95.316 153.173 94.8794 152.463C94.5604 151.946 94.3552 151.358 94.0727 150.742C94.1288 150.667 94.2606 150.492 94.3816 150.33C93.8412 150.249 93.2677 150.314 92.9136 150.067C92.5699 149.827 92.3542 149.287 92.2505 148.84C91.9051 147.338 91.6368 145.818 91.3158 144.189C90.1235 143.82 89.8656 142.359 89.0238 141.539C88.5223 142.17 87.9891 142.844 87.4612 143.508C90.7707 148.71 93.3975 154.317 95.3495 160.204C96.5894 163.941 97.4626 167.808 98.3501 171.652C99.4514 176.42 100.333 181.241 102.226 185.79C103.211 188.16 104.499 190.343 106.101 192.347C108.473 195.313 109.933 198.745 111.191 202.289C111.973 204.499 112.827 206.686 113.741 208.845C114.568 210.798 115.557 212.684 116.411 214.627C117.008 215.984 117.443 217.413 118.048 218.765C118.786 220.417 119.47 222.127 120.456 223.63C123.584 228.409 126.797 233.136 130.064 237.823C132.323 241.064 134.713 244.214 137.07 247.386C137.758 248.312 138.531 249.177 139.284 250.09C134.871 253.159 130.499 256.202 126.199 259.194C127.385 259.836 128.148 261.1 128.712 262.505C128.93 263.049 129.103 263.389 129.826 263.093C130.924 262.642 132.076 262.321 133.212 261.97C133.801 261.788 133.886 261.291 134.13 260.82C134.901 259.333 135.773 257.898 136.642 256.463C136.956 255.946 137.365 255.486 137.742 255.011C138.303 254.303 138.966 253.784 139.948 253.91C139.952 254.313 140.096 254.787 139.934 255.111C139.042 256.911 138.105 258.689 137.125 260.442C136.334 261.858 135.192 262.905 133.61 263.413C132.23 263.857 130.853 264.317 129.563 264.739C130.687 267.3 131.848 269.944 133.033 272.644C136.39 271.212 139.89 269.72 143.393 268.227C142.887 267.378 143.105 266.505 144.003 265.777C146.44 263.799 148.859 261.797 151.321 259.848C153.985 257.74 156.705 255.702 159.365 253.589C160.5 252.688 161.801 251.835 161.533 250.041C161.507 249.866 161.629 249.668 161.685 249.468C160.872 249.04 160.219 249.022 159.33 249.512C157.022 250.781 154.641 251.948 152.203 252.947C149.211 254.175 146.113 255.085 142.81 254.995C141.683 254.966 140.662 254.736 139.939 253.778C139.729 253.01 139.466 253.643 139.224 253.756C138.948 253.385 139.246 252.951 140.118 252.453C140.571 252.586 140.844 252.747 141.107 252.732C146.139 252.418 150.832 250.825 155.455 248.947C156.759 248.417 158.089 247.93 159.441 247.54C159.953 247.393 160.563 247.551 161.122 247.625C161.666 247.697 161.978 248.405 162.715 248.149C162.892 248.088 163.311 248.717 163.618 249.029C163.618 249.087 163.618 249.147 163.618 249.205C163.385 249.887 163.16 250.573 162.913 251.25C162.534 252.289 162.403 253.442 161.486 254.238C160.19 255.36 158.978 256.586 157.627 257.635C153.883 260.544 150.078 263.371 146.327 266.272C145.906 266.596 145.588 267.143 145.394 267.654C144.841 269.109 144.329 270.553 142.488 270.81C142.33 270.833 142.193 270.981 142.039 271.054C139.433 272.296 136.863 273.624 133.994 274.2C132.986 274.404 132.358 274.242 131.795 273.406C130.613 271.652 129.356 269.942 128.305 268.113C127.637 266.949 126.981 265.625 126.89 264.332C126.822 263.37 126.418 262.824 125.98 262.144C125.619 261.583 125.331 260.969 125.07 260.353C124.977 260.136 125.056 259.846 125.056 259.597C123.6 260.066 122.295 260.581 120.943 260.892C119.544 261.213 118.09 261.291 116.675 261.555C114.49 261.961 112.32 262.452 110.135 262.866C109.769 262.935 109.262 263.126 109.064 262.475C108.879 261.866 108.597 261.29 108.381 260.69C107.364 257.872 106.542 254.966 105.297 252.253C103.766 248.915 101.879 245.743 100.16 242.491C99.0358 240.366 97.6434 238.367 97.2399 235.912C96.7138 232.716 96.1281 229.532 95.5705 226.342C95.411 225.433 95.2599 224.523 95.1058 223.615C95.0058 223.628 94.9058 223.643 94.804 223.657C95.0673 226.122 95.3319 228.588 95.5985 231.087C95.0707 230.426 94.6533 229.812 94.1447 229.286C92.6979 227.788 91.0968 226.424 89.7656 224.832C86.132 220.489 83.4542 215.539 81.269 210.355C79.068 205.132 77.1336 199.797 75.08 194.512C74.7994 193.789 74.6785 193.116 75.5747 192.805C74.0945 189.156 72.6704 185.566 71.1814 182.004C70.0645 179.328 68.8526 176.692 67.7178 174.025C67.5918 173.728 67.5813 173.292 67.704 172.997C68.1372 171.952 68.6492 170.94 69.1349 169.917C71.2007 165.566 73.2685 161.219 75.329 156.866C75.45 156.612 75.5081 156.328 75.5939 156.058C75.3729 156.156 75.28 156.302 75.2029 156.456C73.9245 159.018 72.6934 161.605 71.3605 164.137C70.1169 166.499 68.7844 168.816 67.4583 171.135C66.9112 172.092 66.0116 172.776 65.5486 173.844C64.7385 175.713 63.6791 177.474 62.8075 179.321C60.9083 183.342 58.8739 187.314 57.2517 191.446C55.9909 194.654 55.2805 198.072 53.8723 201.251C51.0856 207.542 48.3638 213.86 45.5879 220.156C44.418 222.808 43.1676 225.421 41.9733 228.062C39.6516 233.199 37.8135 238.516 36.1124 243.886C35.3898 246.164 34.7183 248.47 33.817 250.678C33.1101 252.409 32.9927 254.218 32.6051 255.993C32.2665 257.538 31.8914 259.082 31.3899 260.579C31.2581 260.97 30.5498 261.474 30.1936 261.412C29.657 261.321 29.3521 261.539 28.9574 261.719C28.4454 261.952 27.9331 262.244 27.3896 262.349C25.5989 262.696 23.7926 262.972 21.9616 263.278C21.8795 263.796 21.7724 264.455 21.6706 265.09C22.5405 265.046 23.4279 265.002 24.4134 264.953C24.0295 265.826 24.7027 266.104 25.1116 266.514C27.9473 269.353 31.0969 271.743 34.7727 273.426C37.1069 274.494 39.3796 275.696 41.6701 276.86C42.6154 277.339 43.0783 278.77 42.638 279.796C42.5153 280.079 42.2909 280.32 42.1051 280.592C42.5488 280.782 43.2625 280.886 42.9344 281.725C42.6958 281.822 42.4785 281.912 42.2629 282H40.509C40.3704 281.941 40.2319 281.83 40.0933 281.83C38.1204 281.822 36.1475 281.819 34.1729 281.833C33.9468 281.833 33.7204 281.941 33.4943 282H29.2852C29.1959 281.946 29.1118 281.844 29.0189 281.836C26.4566 281.652 23.8821 281.586 21.3374 281.263C19.4838 281.028 17.6721 280.459 15.8431 280.036C15.5238 279.963 15.1889 279.767 14.8942 279.818C14.1122 279.951 13.3545 280.215 12.5759 280.368C11.6516 280.549 10.6713 280.915 9.79262 280.759C8.07046 280.453 6.36955 279.943 4.72276 279.339C3.03205 278.722 1.31358 278.079 0 276.741V276.39H0.740092C0.911798 274.965 0.936451 273.619 1.25578 272.347C1.8712 269.9 2.61129 267.484 3.40409 265.088C3.54066 264.672 4.18441 264.423 4.59838 264.101C4.75421 263.978 5.03671 263.894 5.06646 263.752C5.45067 261.961 5.79947 260.164 6.16781 258.317C5.76972 257.912 5.2699 257.428 4.79983 256.918C4.3581 256.439 3.73531 255.948 4.72616 255.376C4.82448 255.32 4.86472 255.127 4.89645 254.99C5.37162 252.914 5.82751 250.834 6.31515 248.761C7.39554 244.165 8.40367 239.549 9.60675 234.984C10.582 231.284 11.8061 227.648 12.902 223.978C13.8351 220.854 14.6857 217.683 16.392 214.881C18.621 211.221 20.9674 207.63 23.3401 204.061C24.559 202.226 25.8848 200.455 27.2791 198.75C28.5275 197.223 29.9428 195.834 31.2669 194.368C31.8089 193.77 32.3071 193.131 32.8242 192.511C32.7717 192.462 32.719 192.414 32.6646 192.365C31.865 193.061 31.0635 193.759 30.2639 194.455C30.227 194.404 30.1885 194.354 30.1517 194.303C30.2166 194.114 30.3095 193.929 30.3392 193.735C30.6373 191.874 30.9425 190.013 31.2108 188.147C31.3618 187.1 31.6001 186.115 32.4858 185.419C33.6153 184.529 34.7447 183.64 35.8599 182.732C36.0546 182.574 36.3053 182.325 36.3053 182.118C36.3053 181.401 36.1772 180.684 36.1512 179.964C36.1194 179.095 36.1441 178.225 36.1441 177.371C36.4158 177.311 36.6246 177.266 36.8578 177.213C36.7895 176.554 36.6754 175.952 36.6771 175.352C36.6807 174.056 36.7139 172.758 36.7895 171.464C36.9613 168.516 37.0579 165.558 37.384 162.626C37.7189 159.618 38.1995 156.617 38.7868 153.646C39.3674 150.706 40.1355 147.801 40.8686 144.894C41.342 143.015 41.3684 143.049 39.5762 142.065C38.7064 141.588 37.5733 141.295 37.6787 139.913C37.6892 139.771 37.4523 139.592 37.3049 139.457C36.7334 138.935 36.6771 138.312 36.9683 137.647C37.5364 136.344 38.1521 135.062 38.6939 133.749C38.8081 133.474 38.8186 132.991 38.6537 132.795C38.289 132.365 37.7294 132.106 37.3435 131.688C36.7054 130.997 35.9214 130.222 36.1721 129.231C36.4719 128.046 36.9788 126.876 37.5925 125.813C38.31 124.57 39.2393 123.451 40.0284 122.346C38.5222 122.199 36.991 122.095 35.4743 121.88C34.7342 121.775 34.4219 121.995 34.1658 122.716C33.9167 123.419 33.573 124.23 33.0137 124.658C30.8022 126.35 28.2612 126.632 25.557 126.155C22.8561 125.68 20.9498 124.023 19.2418 122.078C18.2334 120.929 17.4987 119.53 17.5741 117.995C17.6934 115.584 18.8718 113.648 20.8393 112.222C21.2989 111.889 22.0373 111.669 22.1775 111.243C22.3317 110.779 21.8899 110.14 21.795 109.563C21.3235 106.724 20.6991 107.347 23.4928 105.505C23.9453 105.207 24.4012 104.916 24.8554 104.623C24.8152 104.543 24.7747 104.462 24.7344 104.381C24.1592 104.613 23.5858 104.844 23.0052 105.079C23.0806 104.949 23.1877 104.767 23.2945 104.583C22.8054 104.439 22.3424 104.327 21.895 104.165C20.1029 103.518 18.8174 101.752 18.9559 99.9215C19.1155 97.8276 19.3399 95.7337 19.6626 93.6571C20.0536 91.1424 20.5466 88.6433 21.0532 86.1479C21.3689 84.5923 21.7636 82.9858 23.2438 82.1159C24.1873 81.56 25.3062 81.3022 26.4336 80.876C26.7776 80.0291 27.2089 78.9717 27.6543 77.8791C27.4633 77.8791 27.2791 77.9193 27.1213 77.8703C26.7388 77.751 26.3688 77.5915 25.9936 77.4493C26.1356 77.1671 26.2058 76.7741 26.4336 76.6233C27.2123 76.1113 28.0473 75.6835 28.7891 75.2641C28.61 74.0418 28.3629 72.7582 28.2436 71.4605C27.9736 68.5597 27.7753 65.6503 27.5262 62.748C27.4316 61.6291 27.3352 60.5051 27.1406 59.4017C26.9091 58.0831 27.1001 57.4744 28.0473 56.8046C27.9736 56.0645 27.9087 55.4157 27.8455 54.7651L28.1261 54.6546C28.4383 55.1017 28.7381 55.5576 29.0662 55.9926C29.2028 56.1733 29.3818 56.4312 29.564 56.4521C31.0688 56.6292 31.6177 57.1307 32.0843 59.0019C32.9066 62.2972 33.4206 65.6344 33.5152 69.0402C33.545 70.0996 33.8363 71.1517 34.0326 72.3618C34.2763 72.0638 34.4446 71.9269 34.5203 71.7515C34.9552 70.7309 35.3567 69.6945 35.7916 68.6739C36.3036 67.4708 36.7561 66.1765 37.968 65.5083C38.6537 65.1312 38.829 64.7051 38.7625 64.0052C38.6097 62.3972 39.2798 61.1222 40.5914 59.9367C39.4445 59.7018 38.4188 59.3983 37.3718 59.3088C36.6878 59.251 36.4631 59.0229 36.4719 58.3953C36.4861 57.343 36.5824 56.2767 36.4493 55.242C36.2668 53.8128 37.0173 52.9798 38.0345 52.2519C39.8057 50.9805 41.8945 50.7683 43.9658 50.5087C44.2622 50.4719 44.5582 50.4246 44.8549 50.3824C44.8512 50.3002 44.8478 50.2177 44.8441 50.1353C44.5724 50.0843 44.3024 49.9967 44.0307 49.9913C43.2379 49.9721 42.4383 50.0474 41.6526 49.9721C38.822 49.7021 36.9105 48.1607 35.7687 45.5967C35.4848 44.9566 35.2006 44.3146 34.8707 43.6974C34.7254 43.4254 34.4675 43.2149 34.1817 42.8837H41.9821C41.2528 42.7854 40.5283 42.689 39.8111 42.5924C39.8111 42.4014 39.7901 42.3065 39.8145 42.226C40.7036 39.1447 41.6033 36.067 42.4856 32.9823C42.7239 32.1456 43.0851 31.3811 42.8624 30.4058C42.3329 28.098 41.9365 25.7584 41.5772 23.4175C41.3457 21.9109 41.2825 20.3783 41.1369 18.8576C40.9388 16.8093 41.1808 14.8049 41.6245 12.8284H42.7925C42.7381 12.532 42.6907 12.2673 42.6417 12.0024C42.9574 11.8534 43.15 11.6429 43.1818 11.4114C43.2906 10.5749 43.4552 9.79273 44.2672 9.32802C44.5795 9.14915 44.9178 8.98254 45.174 8.73875C46.9786 7.02014 48.7058 5.21731 50.5719 3.56706C52.2363 2.09569 54.0355 0.766386 56.2889 0.280594C56.8117 0.168362 57.343 0.0929362 57.8708 0.00175641C58.2794 0.00175641 58.69 0.00175641 59.0986 0.00175641L59.0966 0ZM52.9798 5.28219C53.0585 5.17696 53.1393 5.07351 53.2183 4.96828C53.1795 4.9332 53.141 4.89812 53.1025 4.8648C53.0044 4.97528 52.9061 5.08402 52.8061 5.1945C52.7692 5.24009 52.7307 5.28746 52.6939 5.33305C52.5992 5.47685 52.5046 5.6224 52.4097 5.76623C52.3502 5.82233 52.2887 5.87846 52.2292 5.93456L51.8713 6.38001C51.9152 6.41508 51.9572 6.44841 52.0011 6.48348C52.138 6.32915 52.2748 6.17484 52.4134 6.01875C52.4658 5.98894 52.5009 5.9451 52.5185 5.88722C52.6131 5.74342 52.708 5.59787 52.8027 5.45404C52.8622 5.39618 52.92 5.3383 52.9798 5.28044V5.28219ZM28.6856 109.467C28.4627 109.104 28.24 108.741 27.9067 108.195V109.714L28.0172 109.727C28.0419 109.535 28.0646 109.344 28.0929 109.121C28.2751 109.316 28.419 109.47 28.5627 109.625C28.7593 109.909 28.9557 110.195 29.1537 110.479C29.2555 110.444 29.3555 110.407 29.4572 110.372C29.3869 109.74 29.3186 109.111 29.2484 108.48C29.1906 108.485 29.1345 108.49 29.0767 108.495C29.1379 109.018 29.1994 109.541 29.2784 110.218C29.0206 109.891 28.8523 109.679 28.6837 109.467H28.6856ZM71.2132 18.2561C73.3351 16.9252 75.4081 15.5379 76.9478 13.5176C76.4182 13.821 75.9816 14.2349 75.5132 14.6102C74.035 15.7922 72.546 16.9601 71.0622 18.1351C70.7938 18.3176 70.5258 18.4981 70.2592 18.6805C70.2994 18.7383 70.3416 18.7944 70.3818 18.8525C70.659 18.6542 70.9378 18.4544 71.2149 18.2561H71.2132ZM23.9014 90.5375C23.798 90.3357 23.5892 90.1198 23.6121 89.9339C23.7138 89.0836 23.868 88.2381 24.0278 87.3946C24.1099 86.9668 24.2451 86.5494 24.3556 86.1267C24.4029 86.1354 24.4519 86.1459 24.4993 86.1547C24.5361 86.423 24.5712 86.6897 24.5959 86.8721C25.0132 86.837 25.3711 86.8055 25.7236 86.7755C25.8111 85.3902 25.899 84.0432 25.9865 82.6543C24.1592 83.3156 23.0174 84.5309 22.6281 86.3652C22.067 89.0029 21.5094 91.6439 21.0586 94.3025C20.7288 96.2474 20.5886 98.2257 20.3307 100.184C20.2344 100.911 20.5886 101.395 21.1462 101.668C22.281 102.222 23.4611 102.68 24.6888 103.206V98.2781C23.8416 97.8942 22.5422 98.2693 22.2056 96.7333C23.1684 96.9192 24.0153 97.0838 24.7747 97.2312C24.9484 96.4069 25.1254 95.5759 25.2938 94.7777C24.559 94.6374 23.7507 94.485 22.944 94.3323C22.944 94.2305 22.944 94.1288 22.9457 94.0271C23.3945 93.9203 23.8436 93.7185 24.289 93.729C24.7764 93.7412 25.2586 93.9483 25.7429 94.0693V91.7791C24.6965 91.683 24.074 91.2622 23.875 90.5162C24.48 90.3621 25.0835 90.2076 25.7358 90.041V87.9945C25.2552 87.8261 24.8466 87.6839 24.3766 87.521C24.2154 88.545 24.0575 89.5429 23.8997 90.5409L23.9014 90.5375ZM91.4439 142.428C94.4394 140.88 97.4488 139.324 100.49 137.753C100.167 136.66 99.1094 135.732 99.5602 134.398C99.569 134.371 99.4812 134.32 99.4514 134.271C98.3886 132.549 97.3261 130.825 96.2105 129.016C93.2309 129.82 90.2303 130.631 87.2297 131.443L87.1229 131.074C89.7991 129.277 92.8821 128.7 95.9196 128.342C95.8669 127.757 95.7354 127.197 95.7827 126.653C95.9037 125.275 96.2088 123.905 96.2281 122.529C96.2369 121.899 95.8195 121.217 95.4617 120.642C94.9794 119.865 94.3464 119.184 93.8273 118.428C93.7239 118.278 93.8324 117.978 93.8554 117.746C93.8747 117.558 94.0027 117.308 93.9237 117.192C91.9508 114.325 89.9832 111.452 87.9488 108.629C87.5173 108.03 87.2422 107.096 86.0864 107.294C86.4686 105.155 84.7377 104.155 83.8083 102.74C84.3521 102.166 84.7343 101.365 85.7532 101.83C85.7532 100.912 85.7532 100.067 85.7532 99.2199C85.7532 98.7938 85.7691 98.4116 86.3828 98.6921C86.4652 98.7306 86.6299 98.5903 86.6248 98.5937C86.3811 98.2291 86.0462 97.9276 85.9637 97.568C85.7725 96.735 85.6005 95.8739 85.6042 95.025C85.6181 91.5263 85.6988 88.0279 85.7566 84.5292C85.7603 84.273 85.8654 83.9591 85.7566 83.7715C84.6238 81.8371 83.4241 79.9433 82.3089 78.0001C80.2816 74.4679 78.2245 70.9482 76.3235 67.3478C74.9099 64.6716 73.6771 61.8974 72.4494 59.1283C71.6305 57.2798 70.9395 55.3717 70.2467 53.4691C70.1433 53.1849 70.3467 52.7902 70.4082 52.4465C70.3065 52.0275 70.0365 51.5803 69.6928 51.1998C68.4792 49.8599 66.8078 49.3952 65.1539 48.9427C63.7913 48.5709 62.1813 48.7727 61.4047 47.1486C61.3344 47.0012 60.9539 47.0032 60.7819 46.9539C60.9661 45.5842 59.4774 45.2388 59.2246 44.2024C58.6846 44.4568 58.2199 44.69 57.7428 44.8968C54.2214 46.419 50.6983 47.936 47.1732 49.4496C46.7559 49.6284 46.5734 49.8825 46.4139 50.3526C46.2155 50.9349 45.7596 51.6243 45.2354 51.8521C44.5602 52.1467 43.7008 51.9855 42.9327 52.0977C41.5752 52.2958 40.2197 52.5256 38.8764 52.801C38.289 52.92 38.0153 53.2393 38.2099 53.9706C38.4573 54.9037 38.5398 55.8891 38.5922 56.859C38.6395 57.7042 38.873 58.2199 39.8358 58.2463C40.3353 58.2601 40.8459 58.4355 41.3227 58.6126C42.9678 59.2246 44.5988 59.8684 46.2016 60.4875C46.4734 60.0313 46.7119 59.6457 46.938 59.2547C48.6321 56.3224 50.7244 53.6918 53.1464 51.3452C53.9635 50.5527 54.73 49.5213 56.0399 49.4459C56.8256 49.4003 57.6323 49.3479 58.4021 49.4723C60.0631 49.7443 61.7518 49.9862 63.3459 50.5016C65.3188 51.14 66.9041 52.4448 68.2582 54.0355C69.8137 55.8628 70.7887 57.9935 71.6796 60.1857C72.7687 62.8653 73.6579 65.6064 74.1699 68.4545C74.2858 69.0946 74.1874 69.7732 74.1874 70.4346C74.0576 70.4572 73.9296 70.4782 73.7998 70.5011C73.5193 69.9347 73.1844 69.3876 72.9685 68.7965C72.2426 66.8061 71.5832 64.7929 70.8448 62.8075C70.6624 62.3165 70.1838 61.9343 70.0118 61.4432C69.6945 60.5416 69.6154 59.5457 69.2278 58.6829C68.8631 57.8742 68.7668 56.9168 67.8635 56.3399C66.0062 55.1544 64.1718 53.9216 62.4287 52.5763C61.5625 51.9082 60.9137 51.1383 59.6474 51.0576C57.7323 50.9366 55.8155 51.0227 54.4721 52.3641C53.0112 53.8233 51.7733 55.5752 50.7368 57.3727C49.453 59.5984 48.4587 61.9938 47.3837 64.335C47.2047 64.7243 47.1749 65.2242 47.2084 65.6625C47.2628 66.4009 47.5081 67.1305 47.5223 67.8652C47.5835 70.8712 47.4274 73.8806 47.8711 76.8775C48.036 77.993 47.9904 79.1383 48.0694 80.2677C48.2938 83.4663 48.5551 86.6616 48.7463 89.8622C48.7832 90.4723 48.7849 90.9951 49.3722 91.3441C49.504 91.4229 49.6213 91.6317 49.6318 91.7879C49.7091 92.9751 49.6879 94.1744 49.8352 95.3512C50.0265 96.8753 49.7757 98.4852 50.6246 99.9022C51.3522 99.3251 51.9203 98.736 51.7645 97.6627C51.5154 95.951 51.3715 94.2218 51.2191 92.4979C50.9788 89.7673 50.6246 87.037 50.577 84.3028C50.5053 80.1133 50.6402 75.9184 50.721 71.7269C50.7351 71.0043 50.9122 70.2855 51.0156 69.5647C51.1417 68.6739 51.284 67.7827 51.3908 66.8902C51.4769 66.1731 51.482 65.4452 51.5925 64.7314C51.6696 64.2367 51.8679 63.7615 52.0099 63.2776C52.1414 63.3003 52.2731 63.3249 52.4046 63.3476C52.5746 65.5083 52.2309 67.6286 51.796 69.9381C51.5276 69.6086 51.4083 69.4613 51.2823 69.3051C51.2208 69.5191 51.161 69.7259 51.1015 69.933C51.9538 70.124 52.4695 70.6958 52.4397 71.5147C52.3519 73.9086 52.1714 76.3006 52.145 78.6946C52.117 81.2146 52.215 83.7364 52.2748 86.2581C52.3187 88.0874 52.3607 89.9183 52.457 91.7456C52.529 93.1275 52.6256 94.5113 52.8149 95.881C53.1954 98.6255 53.6479 101.361 54.0757 104.139C54.6124 104.111 54.7246 104.457 54.4002 104.993C53.2042 106.97 52.0099 108.948 50.7771 110.9C50.4053 111.487 49.5828 111.975 49.5476 112.545C49.502 113.276 49.1269 113.467 48.7041 113.797C48.5061 113.951 48.3516 114.192 48.2394 114.425C47.4889 115.985 46.7663 117.558 46.0124 119.118C45.5703 120.029 45.0915 120.922 44.6197 121.82C44.4217 122.197 44.2794 122.546 43.6569 122.336C43.0976 122.146 42.5627 122.385 42.1629 122.948C41.27 124.203 40.3617 125.457 39.334 126.602C38.992 126.985 38.9254 127.294 38.9534 127.702C38.9869 128.188 39.0518 128.674 39.1237 129.156C39.1606 129.4 39.1849 129.673 39.313 129.871C39.9024 130.799 40.5039 131.722 41.144 132.614C41.7455 133.454 42.0226 134.238 41.4877 135.28C40.809 136.599 40.3109 138.01 39.7901 139.254C41.3545 140.038 43.029 140.792 44.6146 141.702C45.6738 142.309 46.6031 142.539 47.8413 142.148C51.8047 140.899 55.9243 140.548 60.0543 140.501C62.4516 140.474 64.8629 140.601 67.2461 140.855C69.7137 141.118 72.1513 141.648 74.6102 142.009C76.5638 142.297 78.5243 142.612 80.4921 142.723C82.193 142.817 83.9101 142.628 85.6217 142.584C86.4301 142.563 86.8265 142.135 86.9931 141.386C87.1526 140.671 87.279 139.934 87.5507 139.261C87.7278 138.822 87.6227 138.64 87.2858 138.433C86.5301 137.968 85.7864 137.481 85.027 137.021C82.2423 135.334 79.4695 133.626 76.6585 131.985C75.2046 131.136 73.7752 130.255 72.7475 128.912C71.9181 127.828 71.2307 126.636 70.5082 125.473C68.9263 122.93 66.629 120.914 65.554 117.96C64.6017 115.347 63.0005 112.978 61.8238 110.437C60.9117 108.465 59.5105 106.705 59.274 104.42C59.2003 103.702 58.7529 103.006 58.4021 102.34C58.0077 101.591 57.5096 100.889 57.8164 99.8793C58.5339 100.112 58.7285 100.679 58.932 101.228C59.2317 102.033 58.8739 103.199 60.1736 103.45C60.2104 103.457 60.2314 103.546 60.2594 103.597C60.7241 104.432 61.2608 105.235 61.643 106.105C63.0461 109.3 64.3806 112.525 65.7818 115.722C66.2167 116.715 66.1028 118.12 67.6144 118.391C67.683 118.404 67.7425 118.507 67.7935 118.576C69.4542 120.803 71.1727 122.988 72.7563 125.27C74.3243 127.528 76.1499 129.428 78.6645 130.643C79.7852 131.185 80.8604 131.872 81.8442 132.637C83.6451 134.037 85.369 135.536 87.1124 137.007C87.8049 137.591 88.575 138.13 89.1151 138.836C89.9937 139.99 90.7126 141.265 91.458 142.428H91.4439ZM23.2086 266.216C22.0863 266.677 21.0113 267.112 19.9414 267.557C17.9441 268.389 15.9009 268.808 13.8736 267.778C11.4762 266.563 8.8913 266.407 6.29928 266.238C6.08026 266.225 5.71191 266.472 5.63456 266.68C5.28916 267.606 5.05059 268.573 4.72616 269.509C3.87386 271.972 3.06011 274.452 1.63432 276.721C3.3392 277.265 5.05598 277.824 6.77983 278.356C7.94948 278.719 9.12449 279.288 10.333 278.433C10.461 278.342 10.6591 278.334 10.8257 278.322C11.8656 278.26 12.9459 278.359 13.9368 278.107C15.2713 277.764 16.2973 278.359 17.4284 278.793C19.9556 279.764 22.5159 280.651 25.2745 280.592C29.0905 280.507 32.9049 280.357 36.7193 280.26C38.0731 280.223 39.4289 280.255 40.6722 280.255C40.83 278.356 39.6567 277.529 38.166 276.957C37.9785 276.886 37.7909 276.818 37.603 276.744C33.6031 275.143 29.6482 273.469 26.4846 270.402C25.2113 269.169 23.9068 267.959 23.2123 266.219L23.2086 266.216ZM81.2707 15.0907C80.2309 16.8779 79.2995 18.6947 78.1667 20.3763C76.2847 23.1718 73.8069 25.3096 70.6694 26.6442C70.2433 26.8249 69.9013 27.2038 69.5208 27.4914C69.5664 27.6982 69.4647 27.7175 69.3981 27.6789C68.3353 27.0581 67.3093 26.3654 66.2079 25.827C65.4678 25.4657 64.6226 25.1464 63.8213 25.1376C63.1812 25.1308 62.4375 25.5097 61.9326 25.9426C61.6903 26.1497 61.8765 26.881 61.9079 27.3738C61.9394 27.8614 62.0448 28.3437 62.0745 28.831C62.1745 30.4585 63.4949 31.4916 65.1471 31.2669C65.3312 31.2425 65.7118 31.4984 65.7328 31.6582C65.8047 32.2314 65.7818 32.8191 65.7591 33.4013C65.6837 35.3303 65.3874 37.2032 64.3736 38.9027C64.137 39.2991 63.9808 39.7428 63.7879 40.1653C63.8562 40.2038 63.9247 40.2426 63.993 40.2792C64.1738 40.0163 64.3736 39.7638 64.5331 39.4884C64.7683 39.0815 64.9524 38.8412 65.5415 39.0744C66.876 39.6023 68.2687 39.9828 69.6242 40.4583C70.3923 40.7283 71.1551 40.316 71.3305 39.5077C71.3639 39.3586 71.5447 39.1464 71.6762 39.1325C72.0794 39.0869 72.5038 39.0569 72.8968 39.1413C74.8258 39.5516 76.746 39.9936 78.6682 40.4373C79.31 40.5844 79.7361 40.411 79.9747 39.7601C80.5989 38.0538 81.1724 36.3212 81.9179 34.6676C82.444 33.4977 82.4613 31.9036 84.1274 31.5001C84.1747 31.4879 84.1835 31.346 84.2257 31.274C84.9395 30.0465 84.8816 29.8202 83.6576 29.1206C83.4856 29.0223 83.3156 28.9118 83.1297 28.8523C81.9615 28.4822 81.8037 27.5174 81.7232 26.5022C81.6002 24.9852 81.4776 23.4699 81.3549 21.9653H78.2279C78.2086 21.8531 78.1911 21.7426 78.1718 21.6304C79.0153 20.6676 80.2921 21.2533 81.2741 20.9991V15.0942L81.2707 15.0907ZM5.88731 264.462C7.34454 264.462 8.67398 264.501 9.99974 264.451C11.5219 264.395 12.9213 264.76 14.3173 265.344C15.266 265.741 16.3044 266.1 17.3108 266.125C18.2666 266.149 19.2347 265.718 20.1519 265.497V263.082C15.6641 262.696 11.3992 261.753 7.54627 259.222C6.97109 261.037 6.41319 262.792 5.88532 264.46L5.88731 264.462ZM23.6699 115.193C22.4966 116.636 22.7247 118.092 23.3191 119.598C24.3958 122.327 27.2633 123.235 29.7009 121.594C29.8624 121.485 30.0797 121.459 30.2446 121.355C30.9093 120.938 31.6335 120.578 32.1983 120.05C32.642 119.635 33.1452 119.035 32.3632 118.323C32.2334 119.572 31.2233 120.101 30.4271 121.035C30.2973 120.149 29.3082 119.63 30.1182 118.811C28.7154 118.946 27.3491 119.079 25.9199 119.217C25.6989 119.068 25.3464 118.826 24.9923 118.586C25.0484 118.577 25.1062 118.569 25.1623 118.56C24.6766 117.464 24.1924 116.368 23.6716 115.195L23.6699 115.193ZM107.76 148.396C107.441 148.578 107.369 148.617 107.299 148.659C105.668 149.639 104.062 150.67 102.389 151.572C101.868 151.853 101.119 151.975 100.547 151.847C98.8816 151.475 97.2504 150.942 95.6705 150.49C95.6776 150.518 95.7073 150.678 95.7529 150.833C96.0369 151.826 96.1859 152.917 97.6644 152.791C98.0959 152.754 98.5447 152.992 98.9918 153.059C99.9529 153.205 100.951 153.543 101.871 153.399C103.376 153.162 104.841 152.633 106.302 152.163C106.656 152.049 107.117 151.74 107.205 151.428C107.466 150.509 107.564 149.544 107.762 148.396H107.76ZM29.3169 91.2651C28.6961 91.5685 28.2961 91.7912 28.733 92.4752C28.7979 92.577 28.7171 92.7611 28.733 92.9048C28.9766 95.1846 29.2203 97.4646 29.4852 99.7427C29.5028 99.8951 29.7026 100.027 29.8148 100.165C29.8148 98.9482 29.8553 97.8276 29.8026 96.7121C29.7519 95.6161 29.5904 94.5235 29.5045 93.4293C29.415 92.3033 29.3835 91.1721 29.2696 90.0481C29.245 89.8112 28.9713 89.599 28.8134 89.3763C28.7435 89.4253 28.6732 89.4746 28.6032 89.5236V90.9092C28.8469 91.0302 29.0818 91.1475 29.3169 91.2651ZM56.005 35.7477C56.9151 35.5672 57.7252 28.0929 56.8624 26.9774C56.7363 27.144 56.5275 27.293 56.5153 27.4545C56.3312 30.2183 56.1696 32.984 56.005 35.7477ZM31.6862 70.3872C31.4284 70.5555 31.1915 70.7712 30.9127 70.8834C30.1936 71.1727 30.0709 71.7164 30.1587 72.397C30.2568 73.1614 30.3322 73.9296 30.4288 74.789C30.8093 74.4872 31.0915 74.1962 31.4301 74.0103C32.2017 73.5876 32.1631 72.8948 32.0685 72.2023C31.986 71.5954 31.8177 70.9993 31.6862 70.3852V70.3872ZM30.0182 70.1345C30.369 69.8749 30.7022 69.6908 30.953 69.4278C31.2003 69.1666 31.544 68.8192 31.5335 68.5228C31.495 67.5056 31.3196 66.4938 31.2074 65.5678C29.0189 66.5867 30.029 68.4404 30.0202 70.1365L30.0182 70.1345ZM30.4163 60.74C29.9885 61.2766 29.3518 61.7098 29.3433 62.157C29.3186 63.2461 29.5853 64.3421 29.736 65.4398C30.883 65.1102 31.2355 64.5736 31.0145 63.5564C30.8232 62.6794 30.6427 61.8008 30.4183 60.7383L30.4163 60.74ZM43.7711 95.0653C42.8222 95.0233 42.3365 95.5951 42.2838 96.656C42.2697 96.9331 42.51 97.4592 42.6329 97.4592C42.9729 97.4592 43.3274 97.2697 43.6447 97.0963C43.8201 96.9997 43.9955 96.8087 44.0567 96.6208C44.1672 96.2842 44.2794 95.9037 44.2199 95.5722C44.1777 95.3373 43.8533 95.1531 43.7711 95.0653ZM35.6794 73.8208C35.2748 73.9449 35.0725 75.2349 35.0725 77.6912V81.8145C35.1708 81.8162 35.2708 81.8196 35.3689 81.8213C35.4706 79.1731 35.574 76.527 35.6777 73.8228L35.6794 73.8208ZM29.1398 60.789C30.6217 59.6825 30.2095 59.8982 29.8799 57.3693C28.6312 57.6816 28.4802 58.376 29.1398 60.789ZM23.0194 113.311C21.7321 114.711 20.5061 115.959 20.1327 117.762C20.8464 118.129 20.9218 117.548 21.0218 117.199C21.3864 115.917 22.1617 114.994 23.3489 114.372C23.2559 114.071 23.1647 113.779 23.0194 113.309V113.311ZM44.4373 100.437C43.8989 100.935 43.3589 101.256 43.1027 101.731C42.9239 102.064 43.1327 102.605 43.1676 103.054C43.5359 102.905 44.0479 102.857 44.2392 102.585C44.6075 102.059 44.932 101.424 44.4356 100.437H44.4373ZM41.4647 90.4391C42.4714 90.8338 42.7695 89.9096 43.2027 89.4114C43.5376 89.0255 42.9922 88.3733 42.417 88.3891C41.635 88.4084 41.1791 89.4044 41.4647 90.4408V90.4391ZM44.7214 20.1783C44.5866 20.2168 44.4514 20.2553 44.3163 20.2939C44.7197 22.3266 45.302 24.3066 46.128 26.2129C46.2033 26.19 46.2804 26.169 46.3561 26.146C45.8106 24.1575 45.2669 22.1671 44.7214 20.1783ZM25.4218 103.557C26.3039 103.999 26.6529 103.369 27.1054 103.136C27.6384 102.862 28.1646 102.566 28.6556 102.228C29.0976 101.922 29.4903 101.547 29.9043 101.202C29.8323 101.105 29.7607 101.007 29.6887 100.911C28.3173 101.761 26.9459 102.61 25.4201 103.557H25.4218ZM30.7478 122.06C30.6093 123.023 28.9239 122.76 29.443 124.249C30.2848 123.814 31.0337 123.428 31.9158 122.974C31.4916 122.642 31.1932 122.408 30.7478 122.06ZM38.2573 44.397C38.1258 45.907 40.1582 47.282 42.3714 47.1117C40.5002 46.7998 39.3289 45.6984 38.2573 44.397ZM41.2298 63.5827C43.1713 63.6459 42.6083 61.9447 43.1537 61.0397C42.1575 61.6044 41.8313 62.6744 41.2298 63.5827ZM24.6942 124.233H28.3068C27.8665 123.746 25.2887 123.591 24.6942 124.233ZM19.8414 118.932C20.3675 119.609 19.9275 120.775 21.2445 120.847C21.0637 120.124 20.9201 119.546 20.7673 118.932H19.8414ZM23.5155 123.717C23.4719 123.74 23.4279 123.763 23.384 123.788C22.5827 123.111 21.7828 122.434 20.9815 121.755C21.155 121.58 21.3287 121.403 21.504 121.227C21.3408 121.301 21.1796 121.377 20.8254 121.538C21.7916 122.322 22.6544 123.02 23.5155 123.719V123.717ZM60.8539 6.94998C61.2361 6.20113 61.6169 5.45231 62.0343 4.63155C61.1556 4.66839 60.6646 5.59435 60.8539 6.94998ZM53.1727 4.62631C53.262 4.72452 53.3515 4.82097 53.4411 4.91917C54.1845 4.22997 54.928 3.5425 55.6718 2.85329C55.5894 2.76384 55.5086 2.67617 55.4261 2.58672C54.6756 3.26717 53.9233 3.94762 53.1727 4.62631ZM45.8069 61.9694C44.7846 61.4027 44.7637 61.4152 44.4707 62.527C44.9617 62.3219 45.3845 62.1448 45.8069 61.9694ZM109.83 147.805C109.621 147.528 109.413 147.251 109.127 146.87C109.067 147.577 109.023 148.112 108.971 148.743C109.27 148.417 109.504 148.163 109.83 147.805ZM63.9194 40.3829C63.844 40.3268 63.7686 40.2707 63.6932 40.2163C63.4388 40.6354 63.1846 41.0544 62.9302 41.4718C62.9795 41.5035 63.0268 41.535 63.0758 41.5647C63.3564 41.1703 63.6388 40.7773 63.9194 40.3829Z" fill="black"/>
<path d="M44.718 20.1766C45.2635 22.1651 45.8069 24.1556 46.3524 26.1443C46.277 26.1673 46.1999 26.1883 46.1246 26.2109C45.2966 24.3049 44.7164 22.3249 44.3129 20.2922C44.448 20.2536 44.5829 20.2151 44.718 20.1766Z" fill="white"/>
<path d="M38.2539 44.3953C39.3252 45.6964 40.4968 46.7978 42.368 47.11C40.1548 47.282 38.1204 45.907 38.2539 44.3953Z" fill="white"/>
<path d="M53.1673 4.62455C53.9179 3.9441 54.6702 3.26368 55.4208 2.58499C55.5032 2.67441 55.584 2.76211 55.6664 2.85156C54.9229 3.54076 54.1792 4.22821 53.4357 4.91742C53.3461 4.81921 53.2569 4.72276 53.1673 4.62455Z" fill="white"/>
<path d="M28.6856 109.465C28.854 109.677 29.0206 109.889 29.2801 110.216C29.2011 109.539 29.1399 109.016 29.0784 108.494C29.1362 108.488 29.1923 108.483 29.2501 108.478C29.3203 109.109 29.3886 109.739 29.4589 110.37C29.3572 110.405 29.2572 110.442 29.1554 110.477C28.9591 110.193 28.7627 109.907 28.5644 109.623C28.6049 109.57 28.6451 109.518 28.6874 109.465H28.6856Z" fill="white"/>
<path d="M28.5644 109.625C28.4207 109.47 28.2768 109.316 28.0946 109.121C28.0665 109.344 28.0436 109.535 28.0189 109.727L27.9087 109.714V108.195C28.2419 108.741 28.4646 109.104 28.6874 109.467C28.6468 109.519 28.6066 109.572 28.5644 109.625Z" fill="white"/>
<path d="M52.4151 6.01877C52.2782 6.1731 52.1414 6.32744 52.0028 6.48351C51.9589 6.44843 51.9169 6.41511 51.873 6.38003L52.2309 5.93459C52.2921 5.96266 52.3536 5.99072 52.4151 6.01877Z" fill="white"/>
<path d="M52.8044 5.45579C52.7097 5.59959 52.6148 5.74514 52.5202 5.88894C52.487 5.84686 52.4502 5.80652 52.4134 5.76795C52.508 5.62416 52.6026 5.47857 52.6973 5.33478C52.7307 5.37685 52.7675 5.4172 52.8044 5.45579Z" fill="white"/>
<path d="M52.8098 5.19447C52.9078 5.084 53.0061 4.97525 53.1061 4.86478C53.1447 4.89985 53.1832 4.93493 53.2217 4.96825C53.143 5.07346 53.0622 5.17694 52.9832 5.28217C52.9254 5.25233 52.8693 5.22428 52.8115 5.19447H52.8098Z" fill="white"/>
<path d="M52.2309 5.93629L52.4117 5.76793C52.4482 5.80652 52.485 5.84684 52.5185 5.88894C52.5026 5.9468 52.4678 5.99064 52.4134 6.02047C52.3519 5.99239 52.2904 5.96434 52.2292 5.93629H52.2309Z" fill="white"/>
<path d="M52.6973 5.33309C52.7341 5.28747 52.7729 5.24012 52.8098 5.19453C52.8676 5.22434 52.9237 5.25242 52.9815 5.28223C52.922 5.34009 52.8639 5.39797 52.8044 5.45583C52.7675 5.41727 52.7307 5.37692 52.6973 5.33485V5.33309Z" fill="white"/>
<path d="M30.2585 194.45C30.1429 194.571 30.027 194.694 29.9131 194.815C29.8779 194.79 29.8428 194.766 29.808 194.743C29.9202 194.594 30.0341 194.447 30.1463 194.298C30.1831 194.348 30.2216 194.399 30.2585 194.45Z" fill="black"/>
<path d="M65.6205 74.7802C65.6557 74.133 65.6888 73.4842 65.7223 72.8687C64.258 72.5531 62.8427 72.4021 61.4784 73.1246C60.9978 73.3791 60.5136 73.5544 60.3909 74.2209C60.3436 74.4804 59.912 74.7312 59.6035 74.8451C59.4859 74.889 59.2405 74.5119 59.0212 74.3804C58.6704 74.1699 58.3092 73.9418 57.9198 73.8508C57.7745 73.8157 57.4552 74.1084 57.3676 74.3155C57.1642 74.8048 57.8445 75.7149 58.418 75.7552C58.8475 75.7852 59.2808 75.7606 59.7403 75.7606C59.2159 76.4321 58.1953 76.8322 57.6289 76.6179C56.8063 76.306 56.4941 75.301 56.7556 73.6771C56.5292 73.9489 56.389 74.2733 56.1645 74.347C55.905 74.4331 55.4525 74.4101 55.2998 74.2401C55.0105 73.9191 54.8544 73.4683 54.6807 73.0563C54.216 71.9516 54.1248 71.2429 55.0561 70.4241C55.7154 69.8435 56.2136 69.1051 57.1922 68.8773C57.7972 68.7368 58.1618 68.8543 58.588 69.1946C59.3334 69.7925 61.3378 69.7715 62.0884 69.191C62.5848 68.807 63.0302 69.0666 63.4581 69.3366C63.702 69.491 63.923 69.6823 64.2597 69.9364C64.0738 68.6597 64.4665 68.2792 65.5364 68.4123C66.2887 68.5053 67.0497 68.5458 67.8074 68.5597C68.5563 68.5738 68.9649 68.8912 69.1068 69.6488C69.2139 70.2169 69.584 70.7573 69.6032 71.3166C69.6367 72.3267 69.0892 72.8495 68.3914 72.9651C67.8635 73.5544 67.4988 73.963 66.9902 74.5294C67.1795 75.7132 67.0305 77.0005 65.312 77.4705C65.8345 76.6216 65.9538 75.7078 65.5942 74.7521L65.6189 74.7802H65.6205Z" fill="black"/>
<path d="M71.6883 70.836C71.8269 71.0148 71.9408 71.3183 72.1111 71.3551C73.03 71.5535 73.107 72.2811 73.321 73.0002C73.9769 75.2046 74.7258 77.3793 75.38 79.5837C75.992 81.6442 76.455 83.7505 77.1144 85.7951C78.2911 89.4429 79.5661 93.0609 80.7953 96.6911C80.8304 96.7962 80.8304 96.9121 80.8463 97.0297C80.1552 97.3995 79.8413 96.9033 79.631 96.4525C78.6121 94.2691 77.6213 92.0735 76.6514 89.8673C76.3428 89.1658 76.1549 88.4118 75.864 87.6998C75.6061 87.0736 75.8761 86.8072 76.2884 86.7143C75.3571 84.3747 74.3645 82.0301 73.4876 79.6449C72.6089 77.2546 71.8496 74.8224 71.0236 72.4126C70.8009 71.7637 70.7573 71.2412 71.6235 71.101C71.6725 71.0939 71.6954 70.9273 71.7306 70.8343H71.6866L71.6883 70.836Z" fill="black"/>
<path d="M43.4623 135.224C43.7711 134.991 44.0499 134.615 44.3919 134.549C45.9019 134.254 47.4206 133.965 48.9498 133.828C51.0102 133.644 53.0815 133.519 55.149 133.517C57.1344 133.515 59.1195 133.705 61.1046 133.803C61.4835 133.822 61.864 133.798 62.2428 133.81C64.0386 133.868 65.8345 133.924 67.6303 134.003C67.8354 134.012 68.0355 134.159 68.1879 134.44C67.2025 134.522 66.2184 134.655 65.2312 134.675C63.3634 134.713 61.4939 134.642 59.6281 134.698C57.2554 134.77 54.8844 134.906 52.5151 135.043C49.7757 135.201 47.0364 135.39 44.297 135.559C44.0797 135.573 43.8587 135.527 43.6377 135.51L43.4606 135.225L43.4623 135.224Z" fill="black"/>
<path d="M54.2389 57.8462C54.4948 57.4693 54.6668 56.9063 55.021 56.7431C56.9959 55.8384 59.0124 55.0281 61.0205 54.1967C61.1012 54.1636 61.2293 54.2423 61.6254 54.3441C61.1205 54.7983 60.8082 55.2139 60.3909 55.4278C58.8583 56.2206 57.2973 56.9571 55.7367 57.692C55.342 57.8779 54.9088 57.9779 54.4931 58.1182C54.4089 58.027 54.3231 57.9357 54.2389 57.8462Z" fill="black"/>
<path d="M71.6883 70.8361H71.7323C70.8746 70.1365 70.0628 68.1828 70.3923 67.5164C71.2605 67.9091 71.2395 68.8192 71.5288 69.5174C71.692 69.9118 71.6427 70.394 71.6883 70.8361Z" fill="black"/>
<path d="M94.8111 130.933C95.0936 131.828 95.3619 132.676 95.63 133.523C94.4796 132.723 94.1501 131.546 94.8111 130.933Z" fill="black"/>
<path d="M64.7665 77.7422C63.5598 78.0106 62.3516 78.3401 61.1276 77.5527C61.8167 76.8687 62.3604 77.5915 62.9339 77.6071C63.5459 77.6247 64.1562 77.6949 64.7683 77.7422H64.7665Z" fill="black"/>
<path d="M65.5942 74.7521C65.4766 74.9995 65.3593 75.2466 65.24 75.4939C65.1258 75.4625 65.0119 75.4307 64.898 75.3993C64.898 75.0012 64.7365 74.3926 64.9295 74.2469C65.4435 73.8576 65.3154 74.6643 65.6189 74.7785L65.5942 74.7521Z" fill="black"/>
<path d="M68.5282 29.6711C68.0389 29.7343 67.6442 29.8323 67.2532 29.8202C66.7797 29.8063 66.2045 29.8289 65.8784 29.5748C65.7047 29.4379 65.9625 28.7505 66.0396 28.2139C65.0768 27.8016 63.9106 27.3018 62.7443 26.802C62.7443 26.7039 62.7443 26.6056 62.7443 26.509C62.9934 26.4617 63.2827 26.3076 63.4844 26.3846C64.4911 26.7652 65.4786 27.2055 66.4675 27.6296C66.7814 27.7648 67.0744 27.9543 67.3971 28.0578C68.2369 28.3241 68.7158 28.8047 68.5265 29.6711H68.5282Z" fill="black"/>
<path d="M80.9095 24.6205C80.3448 25.7902 79.9257 26.66 79.5046 27.5316C79.41 27.5086 79.3154 27.4877 79.2224 27.465C79.1187 26.9774 78.9207 26.488 78.9399 26.0058C78.9609 25.4674 78.7101 25.3657 78.2945 25.2376C77.921 25.1237 77.5878 24.8781 77.237 24.6905C77.2827 24.5624 77.3283 24.4344 77.3739 24.3066C78.4543 24.4012 79.5327 24.4976 80.9095 24.6185V24.6205Z" fill="black"/>
<path d="M62.7146 74.5031L62.5094 74.7768C62.4584 74.8451 62.4463 74.9363 62.4777 75.0151C62.5638 75.231 62.7514 75.6132 62.9566 75.4081C63.2266 75.138 63.2198 74.8204 63.1478 74.5767C63.0917 74.3838 62.8356 74.3401 62.7146 74.5014V74.5031Z" fill="black"/>
<path d="M63.6564 75.4098H64.358L64.0072 75.7605L63.6564 75.4098Z" fill="black"/>
</svg>
